<svg width="241" height="164" viewBox="0 0 241 164" fill="none" xmlns="http://www.w3.org/2000/svg">
<g filter="url(#filter0_d_1_8)">
<mask id="path-1-inside-1_1_8" fill="white">
<path d="M73.9042 0.639328C74.8614 0.0832256 76.0897 0.414446 76.6424 1.37761L98.7489 39.9069L131.825 20.6921C132.782 20.1359 134.011 20.4671 134.563 21.4303L156.671 59.9606L189.746 40.7458C190.703 40.1897 191.932 40.5208 192.484 41.4841L234.371 114.487C234.919 115.443 234.595 116.661 233.645 117.213L161.096 159.361C160.138 159.917 158.91 159.586 158.357 158.623L136.249 120.091L103.174 139.307C102.216 139.863 100.988 139.532 100.435 138.569L78.328 100.039L45.2538 119.255C44.2965 119.811 43.0681 119.479 42.5155 118.516L0.628761 45.5134C0.0804083 44.5575 0.405405 43.3396 1.35532 42.7878L73.9042 0.639328Z"/>
</mask>
<path d="M73.9042 0.639328C74.8614 0.0832256 76.0897 0.414446 76.6424 1.37761L98.7489 39.9069L131.825 20.6921C132.782 20.1359 134.011 20.4671 134.563 21.4303L156.671 59.9606L189.746 40.7458C190.703 40.1897 191.932 40.5208 192.484 41.4841L234.371 114.487C234.919 115.443 234.595 116.661 233.645 117.213L161.096 159.361C160.138 159.917 158.91 159.586 158.357 158.623L136.249 120.091L103.174 139.307C102.216 139.863 100.988 139.532 100.435 138.569L78.328 100.039L45.2538 119.255C44.2965 119.811 43.0681 119.479 42.5155 118.516L0.628761 45.5134C0.0804083 44.5575 0.405405 43.3396 1.35532 42.7878L73.9042 0.639328Z" fill="#FF69B4"/>
<path d="M73.9042 0.639328L72.3971 -1.95469L72.3971 -1.95468L73.9042 0.639328ZM76.6424 1.37761L79.2446 -0.115372L79.2445 -0.115503L76.6424 1.37761ZM98.7489 39.9069L96.1468 41.3999L97.6478 44.016L100.256 42.501L98.7489 39.9069ZM131.825 20.6921L133.332 23.2861L133.332 23.2861L131.825 20.6921ZM134.563 21.4303L131.961 22.9233L131.961 22.9233L134.563 21.4303ZM156.671 59.9606L154.069 61.4536L155.57 64.0698L158.178 62.5546L156.671 59.9606ZM189.746 40.7458L191.253 43.3398L191.253 43.3398L189.746 40.7458ZM192.484 41.4841L189.882 42.9771L189.882 42.9771L192.484 41.4841ZM234.371 114.487L236.973 112.994L236.973 112.994L234.371 114.487ZM233.645 117.213L235.152 119.807L235.153 119.806L233.645 117.213ZM161.096 159.361L162.603 161.955L162.603 161.955L161.096 159.361ZM158.357 158.623L155.755 160.116L155.755 160.116L158.357 158.623ZM136.249 120.091L138.851 118.598L137.35 115.982L134.742 117.497L136.249 120.091ZM103.174 139.307L104.68 141.902L104.681 141.901L103.174 139.307ZM100.435 138.569L103.038 137.076L100.435 138.569ZM78.328 100.039L80.9301 98.5457L79.429 95.9295L76.8209 97.4448L78.328 100.039ZM45.2538 119.255L46.7607 121.849L46.7608 121.849L45.2538 119.255ZM42.5155 118.516L45.1176 117.023L45.1176 117.023L42.5155 118.516ZM0.628761 45.5134L-1.97346 47.0061L-1.97334 47.0064L0.628761 45.5134ZM1.35532 42.7878L2.86234 45.3818L2.86235 45.3818L1.35532 42.7878ZM73.9042 0.639328L75.4112 3.23334C74.9225 3.51721 74.311 3.34225 74.0404 2.87072L76.6424 1.37761L79.2445 -0.115503C77.8685 -2.51336 74.8002 -3.35076 72.3971 -1.95469L73.9042 0.639328ZM76.6424 1.37761L74.0403 2.87059L96.1468 41.3999L98.7489 39.9069L101.351 38.4139L79.2446 -0.115372L76.6424 1.37761ZM98.7489 39.9069L100.256 42.501L133.332 23.2861L131.825 20.6921L130.318 18.098L97.2419 37.3129L98.7489 39.9069ZM131.825 20.6921L133.332 23.2861C132.844 23.5699 132.232 23.395 131.961 22.9233L134.563 21.4303L137.165 19.9373C135.789 17.5392 132.721 16.702 130.318 18.098L131.825 20.6921ZM134.563 21.4303L131.961 22.9233L154.069 61.4536L156.671 59.9606L159.273 58.4676L137.165 19.9373L134.563 21.4303ZM156.671 59.9606L158.178 62.5546L191.253 43.3398L189.746 40.7458L188.239 38.1517L155.164 57.3666L156.671 59.9606ZM189.746 40.7458L191.253 43.3398C190.764 43.6236 190.153 43.4488 189.882 42.9771L192.484 41.4841L195.086 39.9911C193.71 37.5929 190.642 36.7557 188.239 38.1518L189.746 40.7458ZM192.484 41.4841L189.882 42.9771L231.769 115.98L234.371 114.487L236.973 112.994L195.086 39.9911L192.484 41.4841ZM234.371 114.487L231.769 115.98C231.5 115.512 231.653 114.901 232.138 114.619L233.645 117.213L235.153 119.806C237.537 118.421 238.338 115.373 236.973 112.994L234.371 114.487ZM233.645 117.213L232.138 114.619L159.589 156.767L161.096 159.361L162.603 161.955L235.152 119.807L233.645 117.213ZM161.096 159.361L159.589 156.767C160.077 156.483 160.689 156.658 160.959 157.129L158.357 158.623L155.755 160.116C157.131 162.513 160.199 163.351 162.603 161.955L161.096 159.361ZM158.357 158.623L160.959 157.13L138.851 118.598L136.249 120.091L133.647 121.585L155.755 160.116L158.357 158.623ZM136.249 120.091L134.742 117.497L101.667 136.713L103.174 139.307L104.681 141.901L137.756 122.685L136.249 120.091ZM103.174 139.307L101.667 136.713C102.155 136.43 102.767 136.604 103.038 137.076L100.435 138.569L97.8333 140.062C99.2094 142.46 102.278 143.297 104.68 141.902L103.174 139.307ZM100.435 138.569L103.038 137.076L80.9301 98.5457L78.328 100.039L75.7259 101.532L97.8333 140.062L100.435 138.569ZM78.328 100.039L76.8209 97.4448L43.7467 116.661L45.2538 119.255L46.7608 121.849L79.8351 102.633L78.328 100.039ZM45.2538 119.255L43.7468 116.661C44.2352 116.377 44.8469 116.552 45.1176 117.023L42.5155 118.516L39.9134 120.009C41.2894 122.407 44.3578 123.245 46.7607 121.849L45.2538 119.255ZM42.5155 118.516L45.1176 117.023L3.23086 44.0203L0.628761 45.5134L-1.97334 47.0064L39.9134 120.009L42.5155 118.516ZM0.628761 45.5134L3.23098 44.0206C3.50042 44.4902 3.34554 45.1011 2.86234 45.3818L1.35532 42.7878L-0.151691 40.1938C-2.53473 41.5782 -3.3396 44.6247 -1.97346 47.0061L0.628761 45.5134ZM1.35532 42.7878L2.86235 45.3818L75.4112 3.23333L73.9042 0.639328L72.3971 -1.95468L-0.151706 40.1938L1.35532 42.7878Z" fill="black" mask="url(#path-1-inside-1_1_8)"/>
</g>
<defs>
<filter id="filter0_d_1_8" x="0.362289" y="0.369492" width="240.275" height="163.261" filterUnits="userSpaceOnUse" color-interpolation-filters="sRGB">
<feFlood flood-opacity="0" result="BackgroundImageFix"/>
<feColorMatrix in="SourceAlpha" type="matrix" values="0 0 0 0 0 0 0 0 0 0 0 0 0 0 0 0 0 0 127 0" result="hardAlpha"/>
<feOffset dx="6" dy="4"/>
<feComposite in2="hardAlpha" operator="out"/>
<feColorMatrix type="matrix" values="0 0 0 0 0 0 0 0 0 0 0 0 0 0 0 0 0 0 1 0"/>
<feBlend mode="normal" in2="BackgroundImageFix" result="effect1_dropShadow_1_8"/>
<feBlend mode="normal" in="SourceGraphic" in2="effect1_dropShadow_1_8" result="shape"/>
</filter>
</defs>
</svg>
