<svg width="136" height="173" viewBox="0 0 136 173" fill="none" xmlns="http://www.w3.org/2000/svg">
<path d="M0.000137074 41.1769C-0.0150399 47.0312 1.23026 52.8202 3.65168 58.1515L3.68019 58.2198L56.2152 146.421C58.189 151.619 61.1955 156.363 65.0536 160.369C68.9117 164.374 73.5416 167.558 78.6644 169.729C83.7872 171.9 89.2969 173.013 94.8616 173C100.426 172.987 105.931 171.849 111.044 169.655C116.156 167.461 120.772 164.256 124.611 160.232C128.451 156.209 131.436 151.451 133.386 146.245C135.336 141.039 136.21 135.492 135.957 129.939C135.704 124.387 134.328 118.942 131.913 113.935V113.935L131.714 113.576C131.304 112.734 130.848 111.909 130.381 111.095L78.0734 22.6716C73.9008 14.3914 67.0542 7.75918 58.6406 3.84734C50.2271 -0.0644926 40.7385 -1.0272 31.7094 1.1149C22.6802 3.257 14.6383 8.37868 8.88414 15.6517C3.12996 22.9247 -7.16771e-05 31.9239 0.000137074 41.194V41.1769ZM126.866 112.985L128.233 115.505C132.585 124.317 133.302 134.483 130.23 143.818C127.159 153.153 120.544 160.911 111.807 165.426C103.069 169.94 92.9081 170.851 83.5062 167.961C74.1042 165.072 66.2123 158.614 61.5265 149.974C56.8408 141.335 55.7353 131.204 58.4476 121.758C61.1599 112.313 67.4735 104.308 76.0315 99.4634C84.5894 94.6186 94.7086 93.3209 104.214 95.8492C113.72 98.3776 121.853 104.53 126.866 112.985V112.985ZM74.5244 24.4698L119.073 98.5592C112.929 94.0632 105.657 91.356 98.066 90.7382C90.4748 90.1203 82.8608 91.6159 76.069 95.0591C69.2773 98.5022 63.5736 103.758 59.5912 110.243C55.6089 116.728 53.5037 124.189 53.5093 131.797C53.5093 132.252 53.5093 132.708 53.5435 133.163L7.25774 56.4444C3.2698 47.5705 2.9185 37.4896 6.27903 28.3602C9.63957 19.2307 16.4448 11.7784 25.2377 7.59878C34.0306 3.41914 44.1124 2.84443 53.3243 5.9977C62.5362 9.15097 70.1459 15.7816 74.5244 24.4698V24.4698Z" fill="black"/>
<path d="M94.7521 94.4671C101.25 94.4712 107.635 96.1744 113.272 99.4076C118.909 102.641 123.603 107.292 126.888 112.899L128.256 115.425C131.798 122.701 132.877 130.934 131.327 138.877C129.778 146.821 125.686 154.044 119.669 159.456C113.652 164.868 106.037 168.175 97.9744 168.876C89.9121 169.577 81.8406 167.635 74.9795 163.344C68.1184 159.052 62.8406 152.643 59.9433 145.086C57.046 137.53 56.6868 129.235 58.9199 121.456C61.1531 113.677 65.8573 106.836 72.3217 101.967C78.7861 97.0981 86.6594 94.4655 94.7521 94.4671V94.4671Z" fill="#FF00F5"/>
<path d="M41.1786 3.98371C48.0791 3.96321 54.8481 5.87007 60.7233 9.48951C66.5984 13.1089 71.3462 18.2971 74.4319 24.4696L118.929 98.5603C112.792 94.0642 105.529 91.357 97.9464 90.7391C90.364 90.1212 82.7587 91.6169 75.9747 95.0601C69.1908 98.5033 63.4937 103.759 59.5159 110.245C55.5382 116.73 53.4354 124.191 53.441 131.799C53.441 132.254 53.441 132.709 53.4751 133.164L7.24261 56.4447C4.7014 50.7779 3.61816 44.5654 4.09163 38.3729C4.5651 32.1804 6.58017 26.2048 9.95335 20.9902C13.3265 15.7757 17.9506 11.488 23.4044 8.51764C28.8582 5.54728 34.9685 3.98866 41.1786 3.98371Z" fill="#FF69B4"/>
</svg>
