<svg width="102" height="110" viewBox="0 0 102 110" fill="none" xmlns="http://www.w3.org/2000/svg">
<g filter="url(#filter0_d_2_20)">
<g filter="url(#filter1_d_2_20)">
<mask id="path-1-inside-1_2_20" fill="white">
<path d="M20.7307 64.5527C20.1804 63.5953 20.5087 62.3703 21.4639 61.8163L67.1439 35.3252C68.0997 34.7709 69.3211 35.0982 69.8716 36.0561L75.2691 45.4476C75.8194 46.405 75.4911 47.63 74.5358 48.184L28.8559 74.6751C27.9001 75.2294 26.6787 74.9021 26.1282 73.9442L20.7307 64.5527ZM64.4035 56.374C63.8533 55.4166 64.1815 54.1917 65.1367 53.6377L74.5085 48.2022C75.4643 47.6479 76.6857 47.9751 77.2363 48.9331L94.9719 79.7923C95.5222 80.7497 95.1939 81.9747 94.2387 82.5287L84.8669 87.9642C83.9111 88.5185 82.6897 88.1913 82.1392 87.2333L64.4035 56.374ZM1.0283 30.2067C0.478027 29.2493 0.806302 28.0243 1.76161 27.4703L11.1329 22.0359C12.0887 21.4817 13.31 21.809 13.8605 22.7669L31.5962 53.6263C32.1465 54.5837 31.8183 55.8086 30.863 56.3626L21.4921 61.7976C20.5363 62.352 19.3149 62.0247 18.7644 61.0667L1.0283 30.2067Z"/>
</mask>
<path d="M20.7307 64.5527C20.1804 63.5953 20.5087 62.3703 21.4639 61.8163L67.1439 35.3252C68.0997 34.7709 69.3211 35.0982 69.8716 36.0561L75.2691 45.4476C75.8194 46.405 75.4911 47.63 74.5358 48.184L28.8559 74.6751C27.9001 75.2294 26.6787 74.9021 26.1282 73.9442L20.7307 64.5527ZM64.4035 56.374C63.8533 55.4166 64.1815 54.1917 65.1367 53.6377L74.5085 48.2022C75.4643 47.6479 76.6857 47.9751 77.2363 48.9331L94.9719 79.7923C95.5222 80.7497 95.1939 81.9747 94.2387 82.5287L84.8669 87.9642C83.9111 88.5185 82.6897 88.1913 82.1392 87.2333L64.4035 56.374ZM1.0283 30.2067C0.478027 29.2493 0.806302 28.0243 1.76161 27.4703L11.1329 22.0359C12.0887 21.4817 13.31 21.809 13.8605 22.7669L31.5962 53.6263C32.1465 54.5837 31.8183 55.8086 30.863 56.3626L21.4921 61.7976C20.5363 62.352 19.3149 62.0247 18.7644 61.0667L1.0283 30.2067Z" fill="#FF7A5C"/>
<path d="M21.4921 61.7976L19.9962 59.1972L21.4921 61.7976ZM31.5962 53.6263L34.1919 52.1222L31.5962 53.6263ZM30.863 56.3626L32.359 58.963L30.863 56.3626ZM11.1329 22.0359L12.6287 24.6364L11.1329 22.0359ZM1.76161 27.4703L3.25734 30.0708L1.76161 27.4703ZM94.9719 79.7923L97.5676 78.2882L94.9719 79.7923ZM77.2363 48.9331L79.832 47.429L77.2363 48.9331ZM65.1367 53.6377L63.6408 51.0373L65.1367 53.6377ZM64.4035 56.374L61.8078 57.8781L64.4035 56.374ZM75.2691 45.4476L72.6734 46.9517L75.2691 45.4476ZM74.5358 48.184L76.0316 50.7845L74.5358 48.184ZM67.1439 35.3252L65.6481 32.7247L67.1439 35.3252ZM69.8716 36.0561L72.4673 34.552L69.8716 36.0561ZM21.4639 61.8163L22.9597 64.4168L68.6397 37.9257L67.1439 35.3252L65.6481 32.7247L19.9681 59.2158L21.4639 61.8163ZM69.8716 36.0561L67.2759 37.5602L72.6734 46.9517L75.2691 45.4476L77.8648 43.9435L72.4673 34.552L69.8716 36.0561ZM74.5358 48.184L73.0401 45.5835L27.3601 72.0746L28.8559 74.6751L30.3516 77.2756L76.0316 50.7845L74.5358 48.184ZM26.1282 73.9442L28.7239 72.4401L23.3264 63.0486L20.7307 64.5527L18.135 66.0568L23.5325 75.4483L26.1282 73.9442ZM65.1367 53.6377L66.6326 56.2381L76.0044 50.8026L74.5085 48.2022L73.0126 45.6017L63.6408 51.0373L65.1367 53.6377ZM77.2363 48.9331L74.6406 50.4372L92.3762 81.2964L94.9719 79.7923L97.5676 78.2882L79.832 47.429L77.2363 48.9331ZM94.2387 82.5287L92.7428 79.9283L83.371 85.3638L84.8669 87.9642L86.3628 90.5646L95.7346 85.1291L94.2387 82.5287ZM82.1392 87.2333L84.7349 85.7292L66.9992 54.8699L64.4035 56.374L61.8078 57.8781L79.5435 88.7374L82.1392 87.2333ZM1.76161 27.4703L3.25734 30.0708L12.6287 24.6364L11.1329 22.0359L9.63719 19.4354L0.265876 24.8698L1.76161 27.4703ZM13.8605 22.7669L11.2648 24.271L29.0005 55.1304L31.5962 53.6263L34.1919 52.1222L16.4562 21.2628L13.8605 22.7669ZM30.863 56.3626L29.3671 53.7622L19.9962 59.1972L21.4921 61.7976L22.988 64.3981L32.359 58.963L30.863 56.3626ZM18.7644 61.0667L21.3601 59.5626L3.624 28.7026L1.0283 30.2067L-1.5674 31.7108L16.1687 62.5708L18.7644 61.0667ZM21.4921 61.7976L19.9962 59.1972C20.4741 58.92 21.0848 59.0837 21.3601 59.5626L18.7644 61.0667L16.1687 62.5708C17.545 64.9657 20.5986 65.7839 22.988 64.3981L21.4921 61.7976ZM31.5962 53.6263L29.0005 55.1304C28.7254 54.6516 28.8895 54.0392 29.3671 53.7622L30.863 56.3626L32.359 58.963C34.747 57.578 35.5676 54.5157 34.1919 52.1222L31.5962 53.6263ZM11.1329 22.0359L12.6287 24.6364C12.1508 24.9136 11.5401 24.7499 11.2648 24.271L13.8605 22.7669L16.4562 21.2628C15.0799 18.868 12.0266 18.0498 9.63719 19.4354L11.1329 22.0359ZM1.76161 27.4703L0.265876 24.8698C-2.1224 26.2547 -2.94308 29.3172 -1.5674 31.7108L1.0283 30.2067L3.624 28.7026C3.89913 29.1814 3.735 29.7939 3.25734 30.0708L1.76161 27.4703ZM84.8669 87.9642L83.371 85.3638C83.8489 85.0866 84.4596 85.2502 84.7349 85.7292L82.1392 87.2333L79.5435 88.7374C80.9198 91.1323 83.9734 91.9505 86.3628 90.5646L84.8669 87.9642ZM94.9719 79.7923L92.3762 81.2964C92.1011 80.8177 92.2652 80.2053 92.7428 79.9283L94.2387 82.5287L95.7346 85.1291C98.1227 83.7441 98.9432 80.6818 97.5676 78.2882L94.9719 79.7923ZM74.5085 48.2022L76.0044 50.8026C75.5266 51.0798 74.9158 50.9161 74.6406 50.4372L77.2363 48.9331L79.832 47.429C78.4556 45.0341 75.402 44.2159 73.0126 45.6017L74.5085 48.2022ZM65.1367 53.6377L63.6408 51.0373C61.2528 52.4223 60.4322 55.4846 61.8078 57.8781L64.4035 56.374L66.9992 54.8699C67.2744 55.3486 67.1102 55.9611 66.6326 56.2381L65.1367 53.6377ZM28.8559 74.6751L27.3601 72.0746C27.8379 71.7975 28.4486 71.9611 28.7239 72.4401L26.1282 73.9442L23.5325 75.4483C24.9088 77.8431 27.9623 78.6613 30.3516 77.2756L28.8559 74.6751ZM75.2691 45.4476L72.6734 46.9517C72.3983 46.473 72.5624 45.8605 73.0401 45.5835L74.5358 48.184L76.0316 50.7845C78.4198 49.3995 79.2405 46.3371 77.8648 43.9435L75.2691 45.4476ZM67.1439 35.3252L68.6397 37.9257C68.1618 38.2028 67.5512 38.0392 67.2759 37.5602L69.8716 36.0561L72.4673 34.552C71.091 32.1572 68.0375 31.339 65.6481 32.7247L67.1439 35.3252ZM21.4639 61.8163L19.9681 59.2158C17.5799 60.6008 16.7593 63.6632 18.135 66.0568L20.7307 64.5527L23.3264 63.0486C23.6015 63.5273 23.4374 64.1398 22.9597 64.4168L21.4639 61.8163Z" fill="black" mask="url(#path-1-inside-1_2_20)"/>
</g>
</g>
<defs>
<filter id="filter0_d_2_20" x="0" y="0" width="102" height="114" filterUnits="userSpaceOnUse" color-interpolation-filters="sRGB">
<feFlood flood-opacity="0" result="BackgroundImageFix"/>
<feColorMatrix in="SourceAlpha" type="matrix" values="0 0 0 0 0 0 0 0 0 0 0 0 0 0 0 0 0 0 127 0" result="hardAlpha"/>
<feOffset dx="6" dy="4"/>
<feComposite in2="hardAlpha" operator="out"/>
<feColorMatrix type="matrix" values="0 0 0 0 0 0 0 0 0 0 0 0 0 0 0 0 0 0 1 0"/>
<feBlend mode="normal" in2="BackgroundImageFix" result="effect1_dropShadow_2_20"/>
<feBlend mode="normal" in="SourceGraphic" in2="effect1_dropShadow_2_20" result="shape"/>
</filter>
<filter id="filter1_d_2_20" x="0.761505" y="21.7662" width="100.477" height="70.4678" filterUnits="userSpaceOnUse" color-interpolation-filters="sRGB">
<feFlood flood-opacity="0" result="BackgroundImageFix"/>
<feColorMatrix in="SourceAlpha" type="matrix" values="0 0 0 0 0 0 0 0 0 0 0 0 0 0 0 0 0 0 127 0" result="hardAlpha"/>
<feOffset dx="6" dy="4"/>
<feComposite in2="hardAlpha" operator="out"/>
<feColorMatrix type="matrix" values="0 0 0 0 0 0 0 0 0 0 0 0 0 0 0 0 0 0 1 0"/>
<feBlend mode="normal" in2="BackgroundImageFix" result="effect1_dropShadow_2_20"/>
<feBlend mode="normal" in="SourceGraphic" in2="effect1_dropShadow_2_20" result="shape"/>
</filter>
</defs>
</svg>
